# Blender v2.79 (sub 0) OBJ File: 'zom_dah_window_4m_a.blend'
# www.blender.org
mtllib zom_dah_window_4m_a.mtl
o c_box_004
v 0.000000 -25.000006 0.000000
v 0.000000 -25.000006 100.000000
v 0.000000 -0.000006 0.000000
v 0.000000 -0.000006 100.000000
v 400.000000 -25.000006 0.000000
v 400.000000 -25.000006 100.000000
v 400.000000 -0.000006 0.000000
v 400.000000 -0.000006 100.000000
vn -1.0000 0.0000 0.0000
vn 0.0000 1.0000 0.0000
vn 1.0000 0.0000 0.0000
vn 0.0000 -1.0000 0.0000
vn 0.0000 0.0000 -1.0000
vn 0.0000 0.0000 1.0000
usemtl None
s off
f 2//1 3//1 1//1
f 4//2 7//2 3//2
f 8//3 5//3 7//3
f 6//4 1//4 5//4
f 7//5 1//5 3//5
f 4//6 6//6 8//6
f 2//1 4//1 3//1
f 4//2 8//2 7//2
f 8//3 6//3 5//3
f 6//4 2//4 1//4
f 7//5 5//5 1//5
f 4//6 2//6 6//6
o c_box_003
v 0.000000 -25.000006 0.000000
v 0.000000 -25.000006 100.000000
v 0.000000 -0.000006 0.000000
v 0.000000 -0.000006 100.000000
v 400.000000 -25.000006 0.000000
v 400.000000 -25.000006 100.000000
v 400.000000 -0.000006 0.000000
v 400.000000 -0.000006 100.000000
vn -1.0000 0.0000 0.0000
vn 0.0000 1.0000 0.0000
vn 1.0000 0.0000 0.0000
vn 0.0000 -1.0000 0.0000
vn 0.0000 0.0000 -1.0000
vn 0.0000 0.0000 1.0000
usemtl None
s off
f 10//7 11//7 9//7
f 12//8 15//8 11//8
f 16//9 13//9 15//9
f 14//10 9//10 13//10
f 15//11 9//11 11//11
f 12//12 14//12 16//12
f 10//7 12//7 11//7
f 12//8 16//8 15//8
f 16//9 14//9 13//9
f 14//10 10//10 9//10
f 15//11 13//11 9//11
f 12//12 10//12 14//12
o c_box_002
v 0.000000 -25.000006 0.000000
v 0.000000 -25.000006 400.000000
v 0.000000 -0.000006 0.000000
v 0.000000 -0.000006 400.000000
v 50.000000 -25.000006 0.000000
v 50.000000 -25.000006 400.000000
v 50.000000 -0.000006 0.000000
v 50.000000 -0.000006 400.000000
vn -1.0000 0.0000 0.0000
vn 0.0000 1.0000 0.0000
vn 1.0000 0.0000 0.0000
vn 0.0000 -1.0000 0.0000
vn 0.0000 0.0000 -1.0000
vn 0.0000 0.0000 1.0000
usemtl None
s off
f 18//13 19//13 17//13
f 20//14 23//14 19//14
f 24//15 21//15 23//15
f 22//16 17//16 21//16
f 23//17 17//17 19//17
f 20//18 22//18 24//18
f 18//13 20//13 19//13
f 20//14 24//14 23//14
f 24//15 22//15 21//15
f 22//16 18//16 17//16
f 23//17 21//17 17//17
f 20//18 18//18 22//18
o c_box_001
v 0.000000 -25.000006 0.000000
v 0.000000 -25.000006 400.000000
v 0.000000 -0.000006 0.000000
v 0.000000 -0.000006 400.000000
v 50.000000 -25.000006 0.000000
v 50.000000 -25.000006 400.000000
v 50.000000 -0.000006 0.000000
v 50.000000 -0.000006 400.000000
vn -1.0000 0.0000 0.0000
vn 0.0000 1.0000 0.0000
vn 1.0000 0.0000 0.0000
vn 0.0000 -1.0000 0.0000
vn 0.0000 0.0000 -1.0000
vn 0.0000 0.0000 1.0000
usemtl None
s off
f 26//19 27//19 25//19
f 28//20 31//20 27//20
f 32//21 29//21 31//21
f 30//22 25//22 29//22
f 31//23 25//23 27//23
f 28//24 30//24 32//24
f 26//19 28//19 27//19
f 28//20 32//20 31//20
f 32//21 30//21 29//21
f 30//22 26//22 25//22
f 31//23 29//23 25//23
f 28//24 26//24 30//24
o co_culling
v 0.000000 -28.000000 0.000000
v 0.000000 -28.000000 400.000000
v 0.000000 3.000000 0.000000
v 0.000000 3.000000 400.000000
v 400.000000 -28.000000 0.000000
v 400.000000 -28.000000 400.000000
v 400.000000 3.000000 0.000000
v 400.000000 3.000000 400.000000
vn 1.0000 0.0000 0.0000
vn 0.0000 -1.0000 0.0000
vn -1.0000 0.0000 0.0000
vn 0.0000 1.0000 0.0000
vn 0.0000 0.0000 1.0000
vn 0.0000 0.0000 -1.0000
usemtl None
s off
f 35//25 34//25 33//25
f 39//26 36//26 35//26
f 37//27 40//27 39//27
f 33//28 38//28 37//28
f 33//29 39//29 35//29
f 38//30 36//30 40//30
f 35//25 36//25 34//25
f 39//26 40//26 36//26
f 37//27 38//27 40//27
f 33//28 34//28 38//28
f 33//29 37//29 39//29
f 38//30 34//30 36//30
o g_trim
v 350.000000 3.000001 300.000000
v 350.000000 3.000001 99.999985
v 49.999992 3.000001 300.000000
v 49.999992 3.000001 99.999985
v 40.000000 -27.999983 90.000000
v 40.000000 -27.999983 310.000000
v 360.000000 -27.999983 90.000000
v 360.000000 -27.999983 310.000000
v 49.999992 -27.999983 99.999985
v 49.999992 -27.999983 300.000000
v 350.000000 -27.999983 99.999985
v 350.000000 -27.999983 300.000000
v 49.999992 3.000001 99.999985
v 49.999992 3.000001 300.000000
v 350.000000 3.000001 99.999985
v 350.000000 3.000001 300.000000
v 40.000000 -27.999983 90.000000
v 40.000000 -27.999983 310.000000
v 360.000000 -27.999983 90.000000
v 360.000000 -27.999983 310.000000
v 49.999992 -27.999983 99.999985
v 49.999992 -27.999983 300.000000
v 350.000000 -27.999983 99.999985
v 350.000000 -27.999983 300.000000
v 360.000000 -27.999983 310.000000
v 40.000000 -27.999983 310.000000
v 360.000000 3.000019 90.000000
v 360.000000 3.000019 310.000000
v 360.000000 -27.999983 90.000000
v 40.000000 -27.999983 90.000000
v 49.999992 3.000001 99.999985
v 350.000000 3.000001 99.999985
v 40.000000 3.000019 90.000000
v 360.000000 3.000019 90.000000
v 350.000000 3.000001 300.000000
v 350.000000 3.000001 99.999985
v 360.000000 3.000019 90.000000
v 360.000000 3.000019 310.000000
v 49.999992 3.000001 300.000000
v 49.999992 3.000001 99.999985
v 40.000000 3.000019 90.000000
v 40.000000 3.000019 310.000000
v 49.999992 3.000001 300.000000
v 350.000000 3.000001 300.000000
v 40.000000 3.000019 310.000000
v 360.000000 3.000019 310.000000
v 40.000000 -27.999983 90.000000
v 40.000000 -27.999983 310.000000
v 40.000000 3.000019 90.000000
v 40.000000 3.000019 310.000000
v 40.000000 3.000019 310.000000
v 360.000000 3.000019 310.000000
v 40.000000 3.000019 90.000000
v 360.000000 3.000019 90.000000
v 400.000000 2.999977 -0.000022
v 0.000000 3.000038 -0.000022
v 400.000000 2.999977 19.999977
v 0.000000 3.000038 19.999977
v 0.000000 0.000039 19.999977
v 400.000000 -0.000022 19.999977
v 0.000000 3.000038 19.999977
v 400.000000 2.999977 19.999977
v 400.000000 -24.999981 19.999977
v 0.000000 -24.999981 19.999977
v 400.000000 -27.999979 19.999979
v 0.000000 -27.999979 19.999979
v 400.000000 -27.999979 19.999979
v 0.000000 -27.999979 19.999979
v 400.000000 -27.999979 -0.000021
v 0.000000 -27.999979 -0.000021
vt 0.360000 -1.000000
vt 0.515000 0.000000
vt 0.360000 0.000000
vt -1.250000 0.360000
vt 0.250000 0.515000
vt 0.250000 0.360000
vt -1.250000 1.000000
vt 0.300000 0.950000
vt 0.250000 1.000000
vt 2.250000 0.000000
vt 0.700000 0.050000
vt 0.750000 0.000000
vt 2.250000 0.360000
vt 0.750000 0.515000
vt 0.750000 0.360000
vt 0.360000 2.050000
vt 0.515000 0.950000
vt 0.360000 0.950000
vt 0.250000 -1.000000
vt 0.300000 0.050000
vt 0.250000 0.000000
vt 0.750000 2.000000
vt 0.700000 0.950000
vt 0.750000 1.000000
vt 0.360000 2.000000
vt 0.515000 1.000000
vt 0.360000 1.000000
vt 2.300000 0.360000
vt 0.700000 0.515000
vt 0.700000 0.360000
vt -1.300000 0.360000
vt 0.300000 0.515000
vt 0.300000 0.360000
vt 0.360000 -1.050000
vt 0.515000 0.050000
vt 0.360000 0.050000
vt 0.300000 0.950000
vt -1.250000 1.000000
vt 0.250000 1.000000
vt 0.250000 2.000000
vt 0.300000 0.950000
vt 0.250000 1.000000
vt 0.700000 0.950000
vt 0.750000 2.000000
vt 0.750000 1.000000
vt -1.250000 0.000000
vt 0.300000 0.050000
vt 0.250000 0.000000
vt -1.500000 0.375000
vt 0.500000 0.360000
vt 0.500000 0.375000
vt -1.500000 0.600000
vt 0.500000 0.500000
vt 0.500000 0.600000
vt 2.500000 0.600000
vt 0.500000 0.500000
vt 0.500000 0.600000
vt 2.500000 0.500000
vt 0.500000 0.515000
vt 0.500000 0.500000
vt 0.515000 -1.000000
vt -1.250000 0.515000
vt -1.300000 0.950000
vt 2.300000 0.050000
vt 2.250000 0.515000
vt 0.515000 2.050000
vt 0.300000 -1.050000
vt 0.700000 2.050000
vt 0.515000 2.000000
vt 2.300000 0.515000
vt -1.300000 0.515000
vt 0.515000 -1.050000
vt -1.300000 0.950000
vt 0.300000 2.050000
vt 0.700000 2.050000
vt -1.300000 0.050000
vt -1.500000 0.360000
vt -1.500000 0.500000
vt 2.500000 0.500000
vt 2.500000 0.515000
vn 1.0000 0.0000 0.0000
vn 0.0000 0.0000 -1.0000
vn 0.0000 -1.0000 0.0000
vn 0.0000 0.0000 1.0000
vn -1.0000 0.0000 0.0000
vn 0.0000 1.0000 0.0000
usemtl mtl_floor_trim
s off
f 49/1/31 43/2/31 50/3/31
f 62/4/32 56/5/32 64/6/32
f 61/7/33 59/8/33 63/9/33
f 64/10/33 58/11/33 62/12/33
f 63/13/34 53/14/34 61/15/34
f 88/16/35 89/17/35 87/18/35
f 51/19/33 48/20/33 52/21/33
f 50/22/33 45/23/33 49/24/33
f 52/25/35 42/26/35 51/27/35
f 65/28/34 91/29/34 66/30/34
f 70/31/32 94/32/32 69/33/32
f 47/34/31 68/35/31 48/36/31
f 74/37/36 71/38/36 72/39/36
f 75/40/36 77/41/36 76/42/36
f 81/43/36 79/44/36 80/45/36
f 83/46/36 86/47/36 84/48/36
f 104/49/34 105/50/34 103/51/34
f 108/52/33 109/53/33 107/54/33
f 97/55/36 96/56/36 98/57/36
f 100/58/34 101/59/34 99/60/34
f 49/1/31 44/61/31 43/2/31
f 62/4/32 54/62/32 56/5/32
f 61/7/33 57/63/33 59/8/33
f 64/10/33 60/64/33 58/11/33
f 63/13/34 55/65/34 53/14/34
f 88/16/35 90/66/35 89/17/35
f 51/19/33 47/67/33 48/20/33
f 50/22/33 46/68/33 45/23/33
f 52/25/35 41/69/35 42/26/35
f 65/28/34 92/70/34 91/29/34
f 70/31/32 93/71/32 94/32/32
f 47/34/31 67/72/31 68/35/31
f 74/37/36 73/73/36 71/38/36
f 75/40/36 78/74/36 77/41/36
f 81/43/36 82/75/36 79/44/36
f 83/46/36 85/76/36 86/47/36
f 104/49/34 106/77/34 105/50/34
f 108/52/33 110/78/33 109/53/33
f 97/55/36 95/79/36 96/56/36
f 100/58/34 102/80/34 101/59/34
o g_wall
v 40.000000 -24.999981 90.000000
v 40.000000 -24.999981 310.000000
v 360.000000 -24.999981 90.000000
v 360.000000 -24.999981 310.000000
v 400.000000 -24.999981 400.000000
v 400.000000 -24.999981 19.999977
v 0.000000 -24.999981 400.000000
v 0.000000 -24.999981 19.999977
v 360.000000 -0.000016 310.000000
v 360.000000 -0.000016 90.000000
v 360.000000 -24.999981 90.000000
v 360.000000 -24.999981 310.000000
v 400.000000 -24.999981 400.000000
v 400.000000 -24.999981 19.999977
v 40.000008 0.000033 90.000000
v 40.000008 0.000033 310.000000
v 0.000000 0.000039 400.000000
v 0.000000 0.000039 19.999977
v 400.000000 -0.000022 400.000000
v 400.000000 -0.000022 19.999977
v 40.000008 0.000033 90.000000
v 40.000008 0.000033 310.000000
v 0.000000 0.000039 400.000000
v 0.000000 0.000039 19.999977
vt 2.300000 0.050000
vt 0.500000 0.500000
vt 0.700000 0.050000
vt -1.300000 0.950000
vt 0.500000 0.600000
vt 0.300000 0.950000
vt 0.700000 2.050000
vt 0.500000 0.600000
vt 0.700000 0.950000
vt -1.300000 0.050000
vt 0.500000 0.500000
vt 0.300000 0.050000
vt 0.300000 0.050000
vt 0.500000 -1.400000
vt 0.500000 0.500000
vt 0.700000 0.950000
vt 2.500000 0.600000
vt 0.500000 0.600000
vt 0.300000 2.050000
vt 0.500000 0.600000
vt 0.300000 0.950000
vt 0.700000 0.050000
vt 0.500000 -1.400000
vt 0.500000 0.500000
vt 2.500000 0.500000
vt -1.500000 0.600000
vt 0.500000 2.500000
vt -1.500000 0.500000
vt 0.300000 -1.050000
vt 2.300000 0.950000
vt 0.500000 2.500000
vt 0.700000 -1.050000
vn 0.0000 -1.0000 0.0000
vn 0.0000 1.0000 -0.0000
usemtl mtl_wall_01
s off
f 114/81/37 117/82/37 112/83/37
f 111/84/37 116/85/37 113/86/37
f 112/87/37 118/88/37 111/89/37
f 126/90/38 129/91/38 119/92/38
f 122/93/37 124/94/37 123/95/37
f 125/96/38 130/97/38 128/98/38
f 119/99/38 130/100/38 120/101/38
f 132/102/38 134/103/38 133/104/38
f 114/81/37 115/105/37 117/82/37
f 111/84/37 118/106/37 116/85/37
f 112/87/37 117/107/37 118/88/37
f 126/90/38 127/108/38 129/91/38
f 122/93/37 121/109/37 124/94/37
f 125/96/38 120/110/38 130/97/38
f 119/99/38 129/111/38 130/100/38
f 132/102/38 131/112/38 134/103/38
