# Blender v2.79 (sub 0) OBJ File: 'zom_dah_wall_4m.blend'
# www.blender.org
mtllib zom_dah_wall_4m.mtl
o g_trim
v 400.000000 24.999983 19.999998
v 400.000000 27.999907 19.999998
v 400.000000 27.999907 0.000000
v 400.000000 27.999907 19.999998
v 400.000000 -0.000044 19.999998
v 400.000000 -2.999968 19.999998
v 400.000000 -2.999968 0.000000
v -0.000000 -2.999907 19.999998
v -0.000000 -2.999907 0.000000
v -0.000000 -2.999907 19.999998
v 0.000000 0.000016 19.999998
v 0.000004 27.999968 19.999998
v 0.000004 27.999968 0.000000
v 0.000004 27.999968 19.999998
v 0.000004 25.000044 19.999998
v 400.000000 -2.999968 19.999998
vt 2.500000 0.500000
vt 0.500000 0.600000
vt 0.500000 0.500000
vt 2.500000 0.600000
vt 0.500000 0.500000
vt 0.500000 0.600000
vt 2.500000 0.360000
vt 0.500000 0.375000
vt 0.500000 0.360000
vt 2.500000 0.500000
vt 0.500000 0.515000
vt 0.500000 0.500000
vt 2.500000 0.600000
vt 2.500000 0.500000
vt 2.500000 0.375000
vt 2.500000 0.515000
vn 0.0000 1.0000 0.0000
vn -0.0000 -1.0000 0.0000
vn 0.0000 0.0000 1.0000
usemtl mtl_floor_trim
s off
f 13/1/1 4/2/1 3/3/1
f 8/4/2 7/5/2 16/6/2
f 14/7/3 1/8/3 2/9/3
f 11/10/3 6/11/3 5/12/3
f 13/1/1 12/13/1 4/2/1
f 8/4/2 9/14/2 7/5/2
f 14/7/3 15/15/3 1/8/3
f 11/10/3 10/16/3 6/11/3
o c_box_001
v 400.000000 24.999998 0.000000
v 400.000000 24.999998 400.000000
v 400.000000 0.000000 0.000000
v 400.000000 0.000000 400.000000
v 0.000004 25.000059 0.000000
v 0.000004 25.000059 400.000000
v 0.000000 0.000060 0.000000
v 0.000000 0.000060 400.000000
vn 1.0000 0.0000 0.0000
vn -0.0000 -1.0000 0.0000
vn -1.0000 0.0000 0.0000
vn 0.0000 1.0000 0.0000
vn 0.0000 0.0000 -1.0000
vn 0.0000 0.0000 1.0000
usemtl None
s off
f 18//4 19//4 17//4
f 20//5 23//5 19//5
f 24//6 21//6 23//6
f 22//7 17//7 21//7
f 23//8 17//8 19//8
f 20//9 22//9 24//9
f 18//4 20//4 19//4
f 20//5 24//5 23//5
f 24//6 22//6 21//6
f 22//7 18//7 17//7
f 23//8 21//8 17//8
f 20//9 18//9 22//9
o co_culling
v 400.000000 28.000002 0.000001
v 400.000000 28.000002 400.000000
v 400.000000 -2.999995 0.000001
v 400.000000 -2.999995 400.000000
v -0.000043 28.000063 0.000001
v -0.000043 28.000063 400.000000
v -0.000048 -2.999935 0.000001
v -0.000048 -2.999935 400.000000
vn -1.0000 0.0000 0.0000
vn 0.0000 1.0000 0.0000
vn 1.0000 -0.0000 0.0000
vn -0.0000 -1.0000 0.0000
vn 0.0000 0.0000 1.0000
vn -0.0000 0.0000 -1.0000
usemtl None
s off
f 27//10 26//10 25//10
f 31//11 28//11 27//11
f 29//12 32//12 31//12
f 25//13 30//13 29//13
f 25//14 31//14 27//14
f 32//15 26//15 28//15
f 27//10 28//10 26//10
f 31//11 32//11 28//11
f 29//12 30//12 32//12
f 25//13 26//13 30//13
f 25//14 29//14 31//14
f 32//15 30//15 26//15
o g_wall
v 0.000004 25.000044 19.999998
v 400.000000 24.999983 400.000000
v 0.000004 25.000044 400.000000
v 400.000000 24.999983 19.999998
v 400.000000 -0.000044 400.000000
v 0.000072 0.000022 400.000000
v 0.000072 0.000022 19.999998
v 400.000000 -0.000044 19.999998
vt 2.500000 0.600000
vt 0.500000 2.500000
vt 0.500000 0.600000
vt -1.500000 0.600000
vt 0.500000 2.500000
vt 0.500000 0.600000
vt 2.500000 2.500000
vt -1.500000 2.500000
vn 0.0000 1.0000 0.0000
vn -0.0000 -1.0000 0.0000
usemtl mtl_wall_01
s off
f 33/17/16 34/18/16 36/19/16
f 40/20/17 38/21/17 39/22/17
f 33/17/16 35/23/16 34/18/16
f 40/20/17 37/24/17 38/21/17
