# Blender v2.79 (sub 0) OBJ File: 'zom_dah_doorway_elevator_4m.blend'
# www.blender.org
mtllib zom_dah_doorway_elevator_4m.mtl
o g_trim
v 55.000019 0.000021 300.000000
v 55.000019 -2.999903 300.000000
v 345.000061 -2.999903 300.000000
v 325.000000 -2.999903 280.000000
v 325.000000 25.000004 0.000000
v 325.000000 25.000004 280.000000
v 55.000019 0.000021 19.999998
v 55.000019 -2.999903 19.999998
v 75.000000 -2.999903 0.000000
v 55.000019 0.000021 300.000000
v 55.000019 -2.999903 300.000000
v 75.000000 -2.999903 280.000000
v 75.000000 25.000004 280.000000
v 55.000019 0.000021 20.000004
v 55.000019 -2.999903 20.000004
v 345.000061 0.000021 19.999998
v 345.000061 -2.999903 19.999998
v 325.000000 -2.999903 0.000000
v 345.000061 0.000021 300.000000
v 345.000061 0.000021 300.000000
v 345.000061 -2.999903 300.000000
v 325.000000 -2.999903 280.000000
v 325.000000 25.000004 280.000000
v 75.000000 25.000004 -0.000010
v 75.000000 -2.999903 -0.000010
v 0.000000 0.000021 19.999998
v 0.000000 -2.999903 19.999998
v 0.000000 -2.999903 0.000000
v 345.000061 0.000021 19.999998
v 345.000061 -2.999903 19.999998
v 325.000000 -2.999903 0.000000
v 400.000000 0.000021 19.999998
v 400.000000 -2.999903 19.999998
v 400.000000 -2.999903 0.000000
v 75.000000 -2.999903 280.000000
v 75.000000 25.000004 280.000000
v 200.000000 0.000006 339.999969
v 210.352798 0.000006 338.637054
v 219.999985 0.000006 334.640991
v 228.284271 0.000003 328.284271
v 234.640976 0.000003 319.999969
v 238.637070 0.000003 310.352814
v 239.999969 0.000003 300.000000
v 239.999969 -2.999998 300.000000
v 159.999985 0.000003 300.000000
v 159.999985 -2.999998 300.000000
v 161.362976 0.000003 310.352722
v 165.358978 0.000003 319.999969
v 171.715683 0.000003 328.284271
v 179.999969 0.000006 334.640991
v 189.647202 0.000006 338.637054
v 210.352798 -2.999992 338.637054
v 200.000000 -2.999992 339.999969
v 219.999985 -2.999995 334.640991
v 228.284271 -2.999995 328.284271
v 234.640976 -2.999995 319.999969
v 238.637070 -2.999995 310.352814
v 161.362976 -2.999995 310.352722
v 165.358978 -2.999998 319.999969
v 171.715683 -2.999995 328.284271
v 179.999969 -2.999995 334.640991
v 189.647202 -2.999992 338.637054
v 188.000000 0.000003 305.000000
v 212.000015 0.000003 305.000000
v 212.000015 0.000003 319.000061
v 188.000015 0.000003 318.999969
v 187.500015 -2.999995 319.499969
v 188.000015 -2.499996 318.999969
v 212.000015 -2.499996 319.000061
v 212.500031 -2.999995 319.500061
v 188.000000 -2.499999 305.000000
v 187.500000 -2.999998 304.499969
v 212.500031 -2.999998 304.499969
v 212.000015 -2.499999 305.000000
v 239.999969 -2.999998 300.000000
v 159.999985 -2.999998 300.000000
v 210.352798 -2.999992 338.637054
v 200.000000 -2.999992 339.999969
v 219.999985 -2.999995 334.640991
v 228.284271 -2.999995 328.284271
v 234.640976 -2.999995 319.999969
v 238.637070 -2.999995 310.352814
v 161.362976 -2.999995 310.352722
v 165.358978 -2.999998 319.999969
v 171.715683 -2.999995 328.284271
v 179.999969 -2.999995 334.640991
v 189.647202 -2.999992 338.637054
v 187.500015 -2.999995 319.499969
v 212.500031 -2.999995 319.500061
v 187.500000 -2.999998 304.499969
v 212.500031 -2.999998 304.499969
v 75.000000 25.000004 -0.000010
v 75.000000 0.000000 -0.000010
v 325.000000 25.000004 -0.000010
v 325.000000 0.000000 -0.000010
v 212.000015 0.000003 305.000000
v 212.000015 0.000003 319.000061
v 212.000015 -2.499996 319.000061
v 212.500031 -2.999995 319.500061
v 212.500031 -2.999998 304.499969
v 212.000015 -2.499999 305.000000
v 188.000000 0.000003 305.000000
v 188.000015 0.000003 318.999969
v 187.500015 -2.999995 319.499969
v 188.000015 -2.499996 318.999969
v 188.000000 -2.499999 305.000000
v 187.500000 -2.999998 304.499969
vt 0.125000 0.485000
vt -1.125000 0.625000
vt 0.125000 0.625000
vt 0.225000 0.500000
vt -1.225000 0.485000
vt 0.225000 0.485000
vt 0.125000 0.900000
vt -1.225000 1.000000
vt -1.125000 0.900000
vt 0.500000 0.600000
vt 0.485000 2.000000
vt 0.485000 0.600000
vt 0.225000 0.600000
vt 0.125000 1.900000
vt 0.125000 0.500000
vt 0.485000 1.900000
vt 0.625000 0.500000
vt 0.485000 0.500000
vt 0.775000 0.485000
vt 0.500000 0.500000
vt 0.500000 0.485000
vt 0.500000 0.500000
vt 0.775000 0.600000
vt 0.500000 0.600000
vt 0.500000 0.000000
vt 0.485000 -1.400000
vt 0.485000 0.000000
vt 0.875000 0.900000
vt 0.775000 -0.400000
vt 0.875000 -0.500000
vt 0.485000 0.900000
vt 0.625000 -0.500000
vt 0.625000 0.900000
vt 0.500000 0.485000
vt 0.225000 0.500000
vt 0.225000 0.485000
vt 0.500000 0.500000
vt 0.225000 0.600000
vt 0.125000 0.500000
vt 0.562500 0.097500
vt 0.693185 0.051764
vt 0.673205 0.100000
vt 0.437500 0.022500
vt 0.700000 0.000000
vt 0.562500 0.022500
vt 0.560000 0.487500
vt 0.440000 0.500000
vt 0.440000 0.487500
vt 0.306815 0.051764
vt 0.300000 0.000000
vt 0.500000 0.200000
vt 0.437500 0.097500
vt 0.437500 0.097500
vt 0.440000 0.025000
vt 0.440000 0.095000
vt 0.600000 0.173205
vt 0.551764 0.193185
vt 0.448236 0.193185
vt 0.400000 0.173205
vt 0.358578 0.141421
vt 0.326795 0.100000
vt 0.641421 0.141421
vt 0.437500 0.022500
vt 0.560000 0.025000
vt 0.440000 0.025000
vt 0.437500 0.097500
vt 0.560000 0.095000
vt 0.562500 0.097500
vt 0.487500 0.025000
vt 0.500000 0.095000
vt 0.487500 0.095000
vt 0.440000 0.487500
vt 0.560000 0.500000
vt 0.560000 0.487500
vt 0.875000 0.500000
vt 2.125000 0.625000
vt 0.875000 0.625000
vt 0.487500 0.095000
vt 0.500000 0.025000
vt 0.487500 0.025000
vt 0.562500 0.097500
vt 0.560000 0.025000
vt 0.562500 0.022500
vt -1.125000 0.485000
vt -1.225000 0.500000
vt 0.225000 1.000000
vt 0.500000 2.000000
vt 0.225000 2.000000
vt 0.625000 1.900000
vt 0.775000 0.500000
vt 0.875000 0.500000
vt 0.500000 -1.400000
vt 0.775000 1.000000
vt 0.485000 -0.500000
vt 0.500000 0.500000
vt 0.500000 0.600000
vt 0.560000 0.500000
vt 0.437500 0.022500
vt 0.562500 0.022500
vt 0.440000 0.095000
vt 0.500000 0.025000
vt 0.440000 0.500000
vt 2.125000 0.500000
vt 0.500000 0.095000
vt 0.560000 0.095000
vt 0.500000 0.485000
vt 0.551764 0.500000
vt 0.500000 0.500000
vt 0.551764 0.485000
vt 0.600000 0.500000
vt 0.600000 0.485000
vt 0.641421 0.500000
vt 0.485000 0.141421
vt 0.500000 0.100000
vt 0.500000 0.141421
vt 0.485000 0.100000
vt 0.500000 0.051764
vt 0.485000 0.051764
vt 0.500000 0.000000
vt 0.500000 0.000000
vt 0.485000 0.051764
vt 0.500000 0.051764
vt 0.500000 0.100000
vt 0.485000 0.141421
vt 0.500000 0.141421
vt 0.358578 0.485000
vt 0.400000 0.500000
vt 0.358578 0.500000
vt 0.400000 0.485000
vt 0.448236 0.500000
vt 0.448236 0.485000
vt 0.641421 0.485000
vt 0.485000 0.000000
vt 0.485000 0.000000
vt 0.485000 0.100000
vn 0.0000 0.0000 -1.0000
vn 0.0000 0.0000 1.0000
vn 0.0000 -1.0000 0.0000
vn 1.0000 0.0000 0.0000
vn -1.0000 0.0000 0.0000
vn 0.7071 -0.7071 -0.0000
vn 0.0000 -0.7071 0.7071
vn 0.0000 -0.7071 -0.7071
vn -0.7071 -0.7071 0.0000
vn 0.2588 0.0000 0.9659
vn 0.5000 0.0000 0.8660
vn 0.7071 0.0000 0.7071
vn 0.8660 0.0000 0.5000
vn 0.9659 0.0000 0.2588
vn 0.9914 0.0000 0.1305
vn -0.9914 0.0000 0.1305
vn -0.9659 0.0000 0.2588
vn -0.8660 0.0000 0.5000
vn -0.7071 0.0000 0.7071
vn -0.5000 0.0000 0.8660
vn -0.2588 0.0000 0.9659
usemtl mtl_floor_trim
s off
f 22/1/1 36/2/1 23/3/1
f 20/4/2 2/5/2 21/6/2
f 22/7/3 2/8/3 35/9/3
f 16/10/4 3/11/4 17/12/4
f 17/13/3 4/14/3 18/15/3
f 4/16/5 5/17/5 18/18/5
f 8/19/2 26/20/2 27/21/2
f 28/22/3 8/23/3 27/24/3
f 10/25/5 15/26/5 11/27/5
f 12/28/3 15/29/3 25/30/3
f 12/31/4 24/32/4 13/33/4
f 33/34/2 29/35/2 30/36/2
f 34/37/3 30/38/3 31/39/3
f 89/40/3 82/41/3 81/42/3
f 90/43/3 75/44/3 91/45/3
f 74/46/2 63/47/2 71/48/2
f 90/43/3 83/49/3 76/50/3
f 89/40/3 78/51/3 88/52/3
f 104/53/6 106/54/6 105/55/6
f 89/40/3 79/56/3 77/57/3
f 88/52/3 87/58/3 86/59/3
f 88/52/3 86/59/3 85/60/3
f 88/52/3 85/60/3 84/61/3
f 88/52/3 84/61/3 83/49/3
f 89/40/3 81/42/3 80/62/3
f 89/40/3 80/62/3 79/56/3
f 91/45/3 82/41/3 89/40/3
f 88/52/3 78/51/3 87/58/3
f 72/63/7 74/64/7 71/65/7
f 67/66/8 69/67/8 70/68/8
f 106/69/4 103/70/4 105/71/4
f 68/72/1 65/73/1 69/74/1
f 93/75/2 94/76/2 92/77/2
f 98/78/5 96/79/5 101/80/5
f 99/81/9 101/82/9 100/83/9
f 22/1/1 35/84/1 36/2/1
f 20/4/2 1/85/2 2/5/2
f 22/7/3 21/86/3 2/8/3
f 16/10/4 19/87/4 3/11/4
f 17/13/3 3/88/3 4/14/3
f 4/16/5 6/89/5 5/17/5
f 8/19/2 7/90/2 26/20/2
f 28/22/3 9/91/3 8/23/3
f 10/25/5 14/92/5 15/26/5
f 12/28/3 11/93/3 15/29/3
f 12/31/4 25/94/4 24/32/4
f 33/34/2 32/95/2 29/35/2
f 34/37/3 33/96/3 30/38/3
f 90/43/3 76/50/3 75/44/3
f 74/46/2 64/97/2 63/47/2
f 90/43/3 88/52/3 83/49/3
f 89/40/3 77/57/3 78/51/3
f 104/53/6 107/98/6 106/54/6
f 91/45/3 75/44/3 82/41/3
f 72/63/7 73/99/7 74/64/7
f 67/66/8 68/100/8 69/67/8
f 106/69/4 102/101/4 103/70/4
f 68/72/1 66/102/1 65/73/1
f 93/75/2 95/103/2 94/76/2
f 98/78/5 97/104/5 96/79/5
f 99/81/9 98/105/9 101/82/9
s 1
f 53/106/2 38/107/10 37/108/2
f 52/109/10 39/110/11 38/107/10
f 54/111/11 40/112/12 39/110/11
f 55/113/12 41/114/13 40/115/12
f 56/116/13 42/117/14 41/114/13
f 57/118/14 43/119/15 42/117/14
f 45/120/16 58/121/17 47/122/17
f 58/121/17 48/123/18 47/122/17
f 48/123/18 60/124/19 49/125/19
f 60/126/19 50/127/20 49/128/19
f 61/129/20 51/130/21 50/127/20
f 62/131/21 37/108/2 51/130/21
f 53/106/2 52/109/10 38/107/10
f 52/109/10 54/111/11 39/110/11
f 54/111/11 55/132/12 40/112/12
f 55/113/12 56/116/13 41/114/13
f 56/116/13 57/118/14 42/117/14
f 57/118/14 44/133/15 43/119/15
f 45/120/16 46/134/16 58/121/17
f 58/121/17 59/135/18 48/123/18
f 48/123/18 59/135/18 60/124/19
f 60/126/19 61/129/20 50/127/20
f 61/129/20 62/131/21 51/130/21
f 62/131/21 53/106/2 37/108/2
o g_wall
v 0.000000 0.000021 19.999998
v 0.000000 0.000021 400.000000
v 55.000011 0.000021 19.999998
v 345.000061 0.000021 19.999998
v 400.000000 0.000021 400.000000
v 400.000000 0.000021 19.999998
v 55.000011 0.000021 299.999969
v 345.000061 0.000021 299.999969
vt 0.500000 0.600000
vt 0.775000 2.000000
vt 0.500000 2.500000
vt 0.500000 0.600000
vt 0.225000 2.000000
vt 0.225000 0.600000
vt 0.775000 1.000000
vt 2.500000 1.500000
vt 0.500000 1.500000
vt 0.775000 0.600000
vt 0.500000 2.500000
vt 2.225000 1.000000
vn 0.0000 -1.0000 0.0000
usemtl mtl_wall_01
s off
f 108/136/22 114/137/22 109/138/22
f 113/139/22 115/140/22 111/141/22
f 114/142/22 112/143/22 109/144/22
f 108/136/22 110/145/22 114/137/22
f 113/139/22 112/146/22 115/140/22
f 114/142/22 115/147/22 112/143/22
