# Blender v2.79 (sub 0) OBJ File: 'zom_dah_vault_matsplit.blend'
# www.blender.org
mtllib c3.mtl
o c_box_003
v 0.000020 -0.000042 -19.999992
v 0.000020 -0.000042 0.000000
v 0.000020 500.000000 -19.999992
v 0.000020 500.000000 0.000000
v 820.000183 -0.000048 -19.999992
v 820.000183 -0.000048 0.000000
v 820.000183 500.000000 -19.999992
v 820.000183 500.000000 0.000000
vn -1.0000 0.0000 0.0000
vn 0.0000 1.0000 0.0000
vn 1.0000 0.0000 0.0000
vn -0.0000 -1.0000 0.0000
vn 0.0000 0.0000 -1.0000
vn 0.0000 0.0000 1.0000
usemtl None
s off
f 2//1 3//1 1//1
f 4//2 7//2 3//2
f 8//3 5//3 7//3
f 6//4 1//4 5//4
f 7//5 1//5 3//5
f 4//6 6//6 8//6
f 2//1 4//1 3//1
f 4//2 8//2 7//2
f 8//3 6//3 5//3
f 6//4 2//4 1//4
f 7//5 5//5 1//5
f 4//6 2//6 6//6
